<?xml version="1.0" standalone="no"?>
<!DOCTYPE svg PUBLIC "-//W3C//DTD SVG 20010904//EN"
 "http://www.w3.org/TR/2001/REC-SVG-20010904/DTD/svg10.dtd">
<svg version="1.0" xmlns="http://www.w3.org/2000/svg"
 width="67.000000pt" height="57.000000pt" viewBox="0 0 67.000000 57.000000"
 preserveAspectRatio="xMidYMid meet">
<metadata>
Created by potrace 1.15, written by Peter Selinger 2001-2017
</metadata>
<g transform="translate(0.000000,57.000000) scale(0.100000,-0.100000)"
fill="#000000" stroke="none">
<path d="M410 501 c0 -50 -4 -62 -21 -75 -12 -8 -27 -25 -33 -38 -8 -16 -21
-23 -41 -24 -17 0 -56 -13 -88 -28 -49 -24 -68 -27 -110 -23 -29 3 -62 8 -74
12 -19 6 -23 4 -23 -13 0 -12 4 -24 10 -27 5 -3 10 -26 10 -50 0 -24 -5 -47
-10 -50 -6 -3 -10 -16 -10 -28 0 -16 13 -29 47 -47 26 -14 70 -42 97 -62 28
-21 54 -38 57 -38 4 0 96 50 204 111 l196 112 -3 114 -3 115 -35 12 c-19 7
-62 29 -95 49 -33 20 -63 37 -67 37 -5 0 -8 -27 -8 -59z m198 -172 c2 -52 -1
-68 -15 -81 -36 -32 -322 -190 -332 -183 -18 10 -14 130 5 145 39 33 311 190
324 187 11 -2 16 -19 18 -68z"/>
</g>
</svg>
